<svg id="Layer_1" data-name="Layer 1" xmlns="http://www.w3.org/2000/svg" viewBox="0 0 950 475"><path d="M729.64,262.74l.51-.32c.72-.44,1.41-.93,2.13-1.38.36-.22.74-.42,1.11-.62l.08-.07a8.09,8.09,0,0,1,.73-.46c.28-.15.28-.18.59-.35.57-.3,1.06-.75,1.62-1.06a4,4,0,0,0,.35-.2s.24-.13.21-.09a2.51,2.51,0,0,1,.46-.32l.06,0s.08-.15.13-.2a.65.65,0,0,1,.31-.18c-.14.08-.15.07,0,0l.16-.13c.13-1.6-.17-5.69-.17-8.68,0-3.61-.09-5.16-.15-8.72-.13-7.53-.39-17.93-.4-25.52a.81.81,0,0,0,0-.16h0v0c-.46.29-.92.6-1.36.93a2.59,2.59,0,0,1-.66.47l0,0,0,0-1.27.83L731.6,218l-.73.54-1.67,1.26c0,8.44,0,17,.15,25.32C729.38,246.84,729.64,260.46,729.64,262.74Z"/><path d="M736.2,195.2c-1.21.79-2.39,1.62-3.63,2.35-.63.36-1.23.77-1.85,1.14s.29-.13-.2.14c-.11.06-.24.08-.35.13-.3.15-.59.35-.88.52s-.44.25-.65.39c0,2.58,0,5.18,0,7.45,0,1,0,2.17,0,3.18,0,.39,0,.76,0,1.12l.05,0c.09-.08.22-.15.31-.22l.85-.62a19.39,19.39,0,0,1,1.72-1.11c.59-.35,1.13-.75,1.7-1.13l1.74-1.16c.53-.35,1.09-.66,1.62-1,.14-.1.28-.22.42-.34,0-3.54,0-7.5-.06-11.31Z"/><path d="M215.86,254.26c-.79-1.93-.1-5.2-.09-7.24,0-3,0-6.07,0-9.1q-.06-9.07-.24-18.16c-.22-12.15-.48-24.3-.49-36.46,0,1.82-8.11,3.7-8.11,5.64,0,8.39.14,16.79.29,25.18-6,.1-12.08.12-18.06-.21-3.9-.22-8.24-.94-12.25-.35-.18-10.09-.36-20.17-.38-30.26,0,1.82-8.11,3.7-8.1,5.64,0,9.52.17,19,.34,28.54a16.34,16.34,0,0,1-2.1,1.36,12.75,12.75,0,0,1,2.11-.85c0,2.47.09,4.94.14,7.41.1,5.72.19,11.43.23,17.15q0,4.55,0,9.1c0,2.23-.89,6.7.24,8.65l2.43-1.69c2.28-1.48,5.38-3.45,5.68-4s.24-.82.43-1.22a2.93,2.93,0,0,1-.6.82c-.78-1.93-.09-5.2-.08-7.24,0-3,0-6.07,0-9.1,0-6-.14-12.1-.25-18.16,0-.81,0-1.62,0-2.44,2.17.13,4.34.39,6.38.5,7.57.42,15.26.29,22.84.11a2.1,2.1,0,0,0,1.08-.36c0,2.61.09,5.22.14,7.83.1,5.72.19,11.43.24,17.15q0,4.55,0,9.1c0,2.23-.88,6.7.24,8.65l2.44-1.69c2.28-1.48,5.38-3.45,5.67-4s.25-.82.44-1.22A2.93,2.93,0,0,1,215.86,254.26Z"/><path d="M258.48,232.22c-.31-6.29-1.78-13.53-8.65-15.63-4.93-1.51-9.87.36-14,3-4.67,3-6.7,3.27-9.62,8.15,1.43-2.39,3.31-.19,4.77-2.63.46-.76,1.45-1.74,2-2.43.28-.13.64-.58.81-.68s-.34.34-.26.29a14.11,14.11,0,0,1,4.08-1A11.48,11.48,0,0,1,247.83,226a14.07,14.07,0,0,1,2.24,5,88.51,88.51,0,0,0-14.42,8.47c-4.94,3.5-13.09,12-8.31,18.64,3.52,4.88,12.41,2.23,16.66-.06a63.77,63.77,0,0,0,6-3.83c-.27,2.15-1.34,7.57-.32,8.47.08.06,7.72-4.66,7.77-5.22a1.7,1.7,0,0,0,0-.55.61.61,0,0,1-.17.33c-.94-1.66.58-9.3.71-11A109.76,109.76,0,0,0,258.48,232.22Zm-7.23,10.33c-.09,3.09-.33,7-.58,10-.57.37-.29-.28-.45.1s-1,.85-1.21,1.12a12.67,12.67,0,0,1-2.55,1c-3.34.75-9,2.43-11.39-.53-3-3.63-.73-10,2.07-12.87,1.41-1.45,12.35-9.2,13.66-9.2A52.18,52.18,0,0,1,251.25,242.55Z"/><path d="M393.05,255s0,0,0-.06l-.32.23.16-.07Z"/><path d="M403.08,232.16c0-5.29-.18-10.83-.16-15.89l.78-.71v0c-.26.22-.52.47-.78.71,0-1.49,0-2.93.16-4.31.26.95-7.61,2.34-7.61,3.46,0,9.28.25,16.07,0,23-.14,4.08,0,8.17,0,12.25,0,.39,0,1.17-.09,2.16l-.44.8L393.05,255a.5.5,0,0,1-.14.1l-1,.67c-3.29,2.32-.24.13.8-.6a41.3,41.3,0,0,1-6.43,1.38c-4.34.15-7.15-.3-8.3-4.27-3-10.42-2.2-26.44-2.21-37.36a.53.53,0,0,0-.83-.44c-2.07,1.47-7.29,2-7.28,3.5,0,7.72.31,16.48,1,24.17.5,5.46.42,13.26,4.48,17.46,6.33,6.57,15.7-.91,22.15-5.93-.18,3.56-.41,8.85.36,9.3.32.19,8.06-5.13,8.05-5.58a3.69,3.69,0,0,1,0-.58.92.92,0,0,1-.16.39C402.68,255.62,403.08,238.9,403.08,232.16Z"/><path d="M315.38,230.8c-.13-5.15-.42-12-4.67-15.38-3.18-2.54-6.66-1.11-9.67.94-2,1.36-4.06,2.79-6,4.34-.68-2.58-1.94-4.83-4.32-6-4.36-2.1-8.75.07-12.38,2.7-1.32,1-2.71,1.86-4,2.85-.06-2.1-.15-4.19-.32-6.28.12,1.54-7.65,3.88-7.52,5.55,1.06,13.72-.44,27.45-.52,41.18,0-1.8,7.52-3.62,7.53-5.55.05-10.28,1.16-23.2,1.14-33.48a5.3,5.3,0,0,1,2.7-2.53l.08,0a4,4,0,0,1,1.87-.55h1.23a3.3,3.3,0,0,1,1,.08,1.16,1.16,0,0,1,.37.07,1,1,0,0,1,.37.14l-.35-.1a2.82,2.82,0,0,1,.91.34,4.75,4.75,0,0,1,1.11.65,6.11,6.11,0,0,1,1.4,1.38,5.29,5.29,0,0,1,.72,1l.07.11.09.23c.11.24.2.48.3.73,0,0-.07,0-.07.06.15.45.29.92.45,1.37a7,7,0,0,1,.44,1.34c.07.47.25.9.35,1.37,0,.13.07.25.11.38s.08.3.11.45a.29.29,0,0,0,0,.09c2.07,10.52-1,22.42-.83,33,0-1.75,7.55-3.68,7.52-5.55-.11-8.9,1.38-17.72,1.23-26.61a39.91,39.91,0,0,0-.67-7.72,19.27,19.27,0,0,0,2.2-1.55c.53-.12,1.05-.22,1.18-.24a6.08,6.08,0,0,1,3.47.63c2.85,1.46,4.31,4.9,5.05,8,1.13,4.82.83,10.11.82,15,0,6-.15,12-.16,17.95,0-1.8,7.52-3.63,7.53-5.55C315.31,247.42,315.58,239.11,315.38,230.8Z"/><path d="M444,214.09c-2.75-2.38-5.67-1.42-8.45.31-2.09,1.3-4.19,2.74-6.25,4.26-1,.66-2.1,1.31-3.1,2a14.18,14.18,0,0,0-1.93,1.87c-.24.26-.51.49-.78.73a39.9,39.9,0,0,0-1.35-10.68c.26.89-8.41,4.82-8.11,5.84,1.84,6.3,1.62,36.18,1.79,44.5,0-1.8,7.69-3.74,8-5.68l.11-.07h0l-.1.06h0l.1,0,.05,0,0,0,.05,0,.09-.06-.07,0c.38-6.05-.17-12.12-.32-18.18h0c0-.42,0-.83,0-1.26,0-2.73,0-5.44-.13-8.17h0c0-.21,0-.43,0-.64v-.07c.07-.67.1-1.37.13-2.05v0l0,0h0a.81.81,0,0,1,.15-.37s0-.05,0-.06a.75.75,0,0,1,.07-.12c0,.06.19-.25.08-.11s0,0,0,0a1.07,1.07,0,0,1,.13-.31,1.32,1.32,0,0,1,.24-.29,8.1,8.1,0,0,1,1-1.66c.35-.44.66-.95,1-1.36a8.49,8.49,0,0,1,1-1.07,3.61,3.61,0,0,1,.53-.58c.18-.16.33-.36.52-.5a12.25,12.25,0,0,1,1.16-1l.11-.09,0,0,.07,0a.63.63,0,0,1,.52-.28h.08a.9.9,0,0,1,.33-.09.88.88,0,0,1,.23-.07l0,0a0,0,0,0,1,0,0h0l.17-.09a1.17,1.17,0,0,1,.41-.18,4.46,4.46,0,0,1,1.89,0,8.87,8.87,0,0,1,1.07.29,4.2,4.2,0,0,1,.85.42,7.08,7.08,0,0,1,1.2.6,1.94,1.94,0,0,1,.32.32l.09,0a3.66,3.66,0,0,1,.49.31l.18.16.07,0a1.5,1.5,0,0,1,.25.19c.28.25.53.56.79.83a2.12,2.12,0,0,1,.39.55c.1.18.18.36.29.53s.13.17.2.28l.18.3a3.61,3.61,0,0,1,.35.6.52.52,0,0,1,0,.32l.1.15c.44.76.87,1.56,1.25,2.36a.6.6,0,0,1,.13.14.32.32,0,0,1,.05.16c.06.11.13.22.15.27a2.3,2.3,0,0,1,.1.35c1.06-.3,7.28-5.05,7.24-5.28C448.92,219.93,445.78,215.62,444,214.09Z"/><path d="M502.05,211.45c-1.91-1.46-3.92-.88-5.83.24a78.48,78.48,0,0,0-9.39,6.5c-2.63-3.95-8.16-7.05-12.79-5.49a14.42,14.42,0,0,0-3.55,2l-.11.06v0c-.06-.07-.33.08-.52.2l-.29.14c.12-.14,0,0-.1,0l-.31.17-.33.22-.18.11c-.42.23-.52.3-.3.18h0l-.08,0,0,0-.19.11-.62.35-.2.11c.18-.21.35-.43.54-.64a6.91,6.91,0,0,1-1.26,1.08l-.1.06c-.18.11-.36.21-.54.33l-.25.18c-1.79,1-3.87,1.82-5.18,3.29-2.56,2.87-5.67,6-6.64,9.84s.73,8.24,3,11.45a8.63,8.63,0,0,0,6.31,3.91,33.54,33.54,0,0,0-6.84,5.45c-1.46,1.59-4.39,5.06-2.77,7.43,1.37,2,5.73.88,7.73.87,1.39,0,3-.06,4.74-.09a67.84,67.84,0,0,0-6.4,4.2c-5.45,4.63-11.91,8.45-9.63,16.74a14.83,14.83,0,0,0,16.5,11.11c6.12-.89,11.08-4.57,16-8a33.31,33.31,0,0,0,6.15-5.09c.74-.65,1.42-1.3,2-1.9,4.51-4.79,4.64-14.28-.26-18.92-2.73-2.59-6.47-2.69-10-3a106.7,106.7,0,0,0-13.61-.48c-2.62.11-5.84.67-5.5-3.08.16-1.81,1.49-3.7,3-5.21,3.84,0,8-2,11.81-3.59a8.48,8.48,0,0,0,.85-.43c-.22.18-.43.37-.66.54l-.84.48c3.58-1.86,8.4-4.54,10.9-7.79,3.2-4.15,3.48-11.32,1.09-15.9-.1-.18-.21-.36-.32-.54a25.5,25.5,0,0,0,3.8-2.51l.24,0a.14.14,0,0,0,0,.06l.14-.08a3,3,0,0,1,1.78.3c2.6,1.22,3.11,5.29,5.61,6.1.49.16,7.39-4.61,7.37-5C505.93,215.67,503.53,212.59,502.05,211.45Zm-19,52.45a20.08,20.08,0,0,1,3.45,8h0a26.63,26.63,0,0,1,0,2.68l-.12.07s-.17.09-.17.11c0,.54-.06,1.09-.09,1.64a1.86,1.86,0,0,1,0,.33,7.8,7.8,0,0,0-.42,1,3.5,3.5,0,0,1-.49,1.17l-.19.12c-.39.28-.54.83-.87,1.15l-.12.08c-.24.21-.38.52-.61.74a19.06,19.06,0,0,1-1.75,1.73c-.64.46-1.17,1.05-1.78,1.55-.15.13-.32.25-.49.37-.32.14-.66.26-1,.42h0l-.06,0h0l-.13.08c-4.2,1.34-8.84,1.59-12.73-.69-4.69-2.75-8.35-8.72-7.7-14.26.61-5.11,4.75-7.88,8.5-10.81C472.25,259.4,479.58,259.72,483.06,263.9Zm-3.54-25.56c-5.33,1.79-10.15,4.29-14.57-1.87-4.72-6.61-3.47-12.22.47-17.75l.3-.19,1.19-.6c5-.94,10.56,2.66,12.65,7.11A16.59,16.59,0,0,1,479.52,238.34Z"/><path d="M530.2,255.47a18.81,18.81,0,0,1-5.81,1.56c-5.29.29-9.44-2.8-12.17-7.59a25.62,25.62,0,0,1-2.49-6.05c1-.57,2-1.11,2.83-1.5,4.08-2,8.12-4,12.21-6l-.13.09h0a2.38,2.38,0,0,0,.41-.23l.08,0c.07,0,.14-.09.22-.12-.16.12-.32.22-.47.34l.15-.1.39-.25.09,0-.26.19h0l-.39.26-.05,0,0,0a1,1,0,0,0-.18.17.89.89,0,0,1,.27-.19l-.19.13L525,236l.12-.06.67-.45.07,0h0l.44-.32c.45-.22.89-.48,1.35-.71l.52-.27c.38-.15.75-.29,1.12-.45.15-.06.3-.14.44-.21s7.19-4,7.21-4h0l.59-.42,1.28-1v0c-.68-4.52-1.75-9.32-4.6-12.94-3.21-4.06-8.1-2.27-11.87-.23a.71.71,0,0,0,.14-.1c.18-.14,0,0-.08,0l-.21.14-.13.06a4.25,4.25,0,0,0-.39.25h0c.12-.08-.11.06-.33.16l-.25.12a8.27,8.27,0,0,0-.75.45c.06-.08-.08,0-.3.17l-.08.05-.88.57h0l-.13.08-.18.12c-.57.38-1.13.76-1.68,1.16s-.86.61-1.27.94a4.92,4.92,0,0,0-.71.62l-.44.37-.09.07-.25.16q-.21.17,0,.09c-4.69,3.49-9.09,7.33-11.59,13.19-3.54,8.34-2,19.05,4.06,25.6,5.19,5.6,12.74,4.38,18.53.68,1.31-.84,2.71-1.73,4.12-2.68.52,0,8.55-6.66,10.48-9.66C538.19,250.07,530.8,254.72,530.2,255.47Zm-20.89-23.21A25,25,0,0,1,512,225a26.18,26.18,0,0,1,2.43-3.58c.29-.36.81-.88,1.3-1.37,3.49-1.63,7.53-2.51,10.32,1,2.17,2.73,3,6.65,3.6,10.35q-10.23,4.82-20.5,9.46A23.69,23.69,0,0,1,509.31,232.26Z"/><path d="M649.18,245.69c0,3.32.16,5.85.16,9.5a49.18,49.18,0,0,1-.53,7.77c.1-.58.71-1.07,1.54-1.51a.77.77,0,0,1,.43-.28c.37-.37.75-.72,1.14-1.08a40.39,40.39,0,0,1,3.4-2.57c.67-.51,1.37-1,2.07-1.42.3-3.11,0-6.4,0-9.8,0-4.05.23-8.06,0-12.1a85.07,85.07,0,0,0-1.72-13.88c-.9-3.65-2.6-4.77-6-5.79-5.55-1.65-10-.07-14.74,2.89-1.63,1-3.62,2.05-5.44,3.3,0-2.27,0-4.55,0-6.85,0,1.32-5.95,2.44-6,3.85-.26,7.55.36,14.87.38,22.43s-.69,14.84.36,22.24a1.23,1.23,0,0,1,.26-.19l0,.06,1-.68,1-.57c1.24-.78,3.34-1.57,4.17-2.86a5.09,5.09,0,0,1-2.43,1.67l2-1.27c-1.06-7.4-.36-14.8-.37-22.25,0-3.83-.17-7.61-.29-11.38,0-.16.05-.31.07-.47a4.66,4.66,0,0,1,.41-1.64,9.11,9.11,0,0,1,.85-1.33,2.78,2.78,0,0,1,.42-.33l.42-.28a.72.72,0,0,1,.49-.34.92.92,0,0,1,.25-.27.93.93,0,0,1,.44-.12h0l.1-.07h0l.07,0,.14-.1a.85.85,0,0,1,.34-.11l.15-.25a13.81,13.81,0,0,1,4.17-.32c5.65.52,8.68,2.42,9.71,8.34A79.32,79.32,0,0,1,649.18,245.69Z"/><path d="M613,228.25c-1.4-7-5.6-16.4-13.62-13.32a34,34,0,0,0-9.63,5.74c-1.78,1.09-3.84,2.29-5.37,3.44-9.59,7.21-13.1,24.21-5.06,34.18,3.94,4.88,9.27,5.66,14.54,2.76a57.51,57.51,0,0,0,7.31-4.25,8.44,8.44,0,0,1-1.17,1l4-2.57-.94.72a15.09,15.09,0,0,0,1.49-1,8.32,8.32,0,0,0,.74-.59,8.22,8.22,0,0,1,.61-.57,2.6,2.6,0,0,1,1.15-.49l.48-.33.29-.19-.13.07a10.9,10.9,0,0,0,3.25-3.48C614.29,243.46,614.3,234.82,613,228.25Zm-10.14,26.36-.29.17a1.76,1.76,0,0,1-.14.23.76.76,0,0,1-.21.19h0l0,.05-.07.08-.08.09-.06,0a.81.81,0,0,1-.49.34l0,0c.13,0,0,0-.07.05l-.16.08h-.05a.84.84,0,0,1-.6.39c.28,0,.09,0,0,0a1.21,1.21,0,0,1-.42.13h-.25a.93.93,0,0,1-.53.34,2.71,2.71,0,0,1-.64,0,1.39,1.39,0,0,1-.21.11c-7.14,1.43-13.16-4.53-14.76-12.7a28,28,0,0,1,4-20.31c.09-.05.18-.08.27-.12a2,2,0,0,1,.4-.59,5.48,5.48,0,0,0,.44-.4,3.21,3.21,0,0,1,.21-.3,2.11,2.11,0,0,1,.37-.3c.19-.14.36-.31.56-.46a.76.76,0,0,0,.08-.11,1.2,1.2,0,0,1,.55-.5l.29-.13h0l0,0c-.05,0,0,0,0,0l.1-.07.05,0a1,1,0,0,1,.13-.09.75.75,0,0,1,.16-.15.82.82,0,0,1,.34-.27l0,0a2.63,2.63,0,0,1,1.1-.59h.47c0-.07.09-.15.14-.21,7.09-.92,10.92,7.8,12,15.21C606.26,240.05,606,249.18,602.84,254.61Z"/><path d="M564.64,217.71l-3.34.1c0-6.2-.19-12.68.35-18.82a25.1,25.1,0,0,1,2.12-8.94l.12,0-.12,0c.14-.28.31-.55.47-.82a5.55,5.55,0,0,1,.82-.06,5.66,5.66,0,0,1,2.85,1.06c.32.22.64.42,1,.62.45.37.88.77,1.33,1.14a15.69,15.69,0,0,1,5.06,6.61c-.14-.35,7-3.79,8.21-4.81a12,12,0,0,0-.73-1.37,8.53,8.53,0,0,0-1-1.63c-.34-.37-.57-.74-.87-1.13l-.1-.14a1.62,1.62,0,0,1-.37-.37,18.44,18.44,0,0,0-2.33-2.51l-.13,0a.67.67,0,0,1-.49-.51l0,0a.91.91,0,0,1-.58-.39c-.62-.35-1.2-.77-1.81-1.13l-.34-.22a.45.45,0,0,1-.11,0,1.18,1.18,0,0,1-.57-.15.59.59,0,0,1-.29.07h-.21l-.1,0h0a.86.86,0,0,1-.23-.06h0a1,1,0,0,1-.16-.06,1,1,0,0,1-.3-.08h0a.79.79,0,0,1-.22,0h0l.11,0-.11,0c-.26.1-.53.21-.8.3s-.73.08-1.09.18-.82.29-1.23.44a7.58,7.58,0,0,0-1.14.37c-.35.18-.68.4-1,.6L567,186c.2-.16.38-.33.59-.48a30.59,30.59,0,0,1-2.94,1.82,2.7,2.7,0,0,0-1.15.65,42,42,0,0,0-4.29,2.58c-4.38,3.13-5.53,8.32-5.94,13.48-.37,4.52-.4,9.19-.38,13.82-.78,0-8.11,5.13-10.69,4.91a93.3,93.3,0,0,0,10.72.09c0,.37,0,.75,0,1.13,0,3.85.09,7.73,0,11.58-.07,3.08.31,21.4.36,27.39,0-1.6,8.39-3.33,8.38-5,0-6-.41-24.31-.36-27.39.05-2.58,0-5.17,0-7.75,3.69-.42,7.56.16,10.92-.54a1.55,1.55,0,0,0,.6-.14c-.13,0-.06.08,0,.1l.42-.26,1.1-1.06a10.11,10.11,0,0,1,1.23-1.13,4.69,4.69,0,0,0,.69-.56,2.6,2.6,0,0,1,.66-.48,15.36,15.36,0,0,0,1.46-1.21C573.9,218,569,217.61,564.64,217.71Z"/><path d="M698.55,216.62l-.32.1a6.58,6.58,0,0,0-1.75.17c.38-.36-15.1-.08-16.85-.28a5.79,5.79,0,0,0-1,0c0-5.44.43-17.29.49-17.54,0,.1,0-1.65,0-1.65-.06-.35-6.65,5.07-7.61,5.66,0,.46,0,10,0,13.78l-1.89.06c-.72,0-1.43,0-2.15.09h-.26c-1.3,0-2.5,0-2.9.56-.17.24-.66.85-1.24,1.51l-.24.23a5.82,5.82,0,0,0-.46.53l-.35.34-.72.66-.11.11a1.1,1.1,0,0,1-.62.29l.31,0-.32.31a.48.48,0,0,0-.11.09.46.46,0,0,0-.07.07l-.11.11a1.64,1.64,0,0,1-.61,0c.16.06.33.1.5.15l-.41.36-.28.34-.1.07a3.59,3.59,0,0,0-.54.35l-.07.06-.52.33a5.31,5.31,0,0,0,1.2-.06c.62-.05,1.24-.13,1.87-.18l.48-.05a7,7,0,0,0,1,0,10.74,10.74,0,0,1,1.51-.1c1.09,0,2.18,0,3.27,0s1.9-.2,2.87-.13c-.05,1,.5-.32.57.7.49,7.59-1,23.9,0,31.27.71,5.08,2.15,9.53,9.41,7.11a19.49,19.49,0,0,0,4.22-2.17l.14-.05-.1.09a5.82,5.82,0,0,1,.59-.33,10,10,0,0,0,.94-.78,8.44,8.44,0,0,1,1.14-.85l.81-.72c.21-.21.41-.45.64-.64l.17-.21a.61.61,0,0,1,.41-.25c.14-.16.29-.32.44-.47a4.57,4.57,0,0,0,.76-.6,1.39,1.39,0,0,1-.27.21h0a2.92,2.92,0,0,0,.28-.21l-.49.31,0,0-.14.09-.06,0-.28.15-.6.27a9.85,9.85,0,0,1-1.43.6,9.4,9.4,0,0,1-1.19.12c-.46.06-.89.25-1.35.28a6.23,6.23,0,0,1-2.5-.28,5.2,5.2,0,0,1-.77-.32.9.9,0,0,1-.2-.19c-5.84-3.1-3.49-18.79-3-33.25.6,0,1.19-.08,1.8-.07,1.45,0,2.93.08,4.39,0,.71,0,1.46,0,2.17-.11.31,0,.61-.09.92-.08a1.79,1.79,0,0,0,.92-.08l.09-.05.06,0c.07.06.39-.21.69-.44l0,.11.16-.08.48-.28c.48-.27,1-.6,1.45-.93l6.62-4.19h-.06Z"/><path d="M720.43,241.65c-3.69-4.72-8.86-6.39-13.76-9.26-2.92-1.7-6.34-3.73-6.77-7.6a9.72,9.72,0,0,1,0-1.19.29.29,0,0,0,.07-.08.4.4,0,0,1,0-.11c0-.12.08-.25.11-.37s0-.11.05-.16.1-.31.06-.16c.07-.25.15-.49.23-.74a1.26,1.26,0,0,1,.27-.51l.05-.06,0-.08a.68.68,0,0,1,.42-.39l0,0,.09,0a1.37,1.37,0,0,1,.41-.35h.06l.06,0a1.19,1.19,0,0,1,.22-.08l.17-.08h0l.08-.06.16-.08a1.06,1.06,0,0,1,.25,0h.19a1.06,1.06,0,0,1,.19-.06l.15-.11c.66.08,1.3.07,2,.17a5.72,5.72,0,0,1,2.83,1.48h0a8.81,8.81,0,0,1,2,2.58c-.05-.1,8.5-5.15,8.38-5.39a8,8,0,0,0-4.21-3.92l-.15,0a4.35,4.35,0,0,0-1-.39,9.41,9.41,0,0,0-2.31-.57,7.76,7.76,0,0,0-1.84.21l-.18-.06a10,10,0,0,0-1.17.5c-.78.35-1.58.75-2.34,1.17a.57.57,0,0,1-.28.06l-.49.28-.2.14-.46.26-.29.19c-.26.18-.52.36-.77.55l-.18.08a19.64,19.64,0,0,0-1.76,1.07,20,20,0,0,0-2,1.53l-.18.16a23,23,0,0,0-2.12,1.83,3.83,3.83,0,0,0-.29.28l-1.16,1.14h0c-2.9,2.27-5.06,5.44-2.73,9.57,2.45,4.36,8.59,5.88,12.5,8.17,5.3,3.11,12.63,10.25,9.71,17.07l-.07,0-.24.2-.08.07-.4.28,0,0c-.1,0-.14.06-.05,0a.85.85,0,0,1-.22.09.7.7,0,0,1-.32.13l0,0s0,0,0,0a.82.82,0,0,1-.53.1h0a.84.84,0,0,1-.27,0h-.15a1.4,1.4,0,0,1-.45.06,1.56,1.56,0,0,1-.57.06h-.1a1.85,1.85,0,0,1-1,0,7.91,7.91,0,0,1-1.28-.29,5.34,5.34,0,0,1-1.68-.62,12.94,12.94,0,0,1-5-2.12c-1.07-.79-6.69-4.49-5.22-6.3-1.44,1.78-4.55,2-6,3.86s4.15,5.51,5.22,6.3c3.4,2.47,7.87,2.69,11.9,2.59a2.66,2.66,0,0,0,.39-.07l-.2.13a7.55,7.55,0,0,0,3.22-1c.27-.12.54-.26.8-.4l.08,0A8.49,8.49,0,0,0,713,261l.17-.1.1-.06,0,0,.14-.09c.21-.12.42-.26.62-.39l0,0c-.1.08-.21.15-.31.24h0a12.89,12.89,0,0,0,1.25-.83h0l0,0,.36-.29a2.1,2.1,0,0,0,.29-.2h0a1.63,1.63,0,0,0,.17-.11c.07-.1.11,0,0-.08L716,259l.59-.45c.26-.16.51-.33.76-.52l0,0a20.19,20.19,0,0,0,3.43-2.43l.07-.08.49-.31-.29.11C724.9,251.39,723.53,245.62,720.43,241.65Z"/><path d="M781.48,218.5a3.19,3.19,0,0,1,.09-.34l0,0h0s.1-.37.15-.52a.46.46,0,0,1,0-.1,1.07,1.07,0,0,1,.1-.22,1.33,1.33,0,0,1,0-.19,4.46,4.46,0,0,1,.13-.56l0-.09v-.09a2.11,2.11,0,0,0,.11-.24,3.43,3.43,0,0,0,.11-.46,1.36,1.36,0,0,1,.21-.56c-.16.27,0-.05,0-.09.11-.36.25-.73.39-1.1a8.35,8.35,0,0,1,.36-1.39c0-.11.08-.22.11-.34l-3.49,2.36a22.76,22.76,0,0,0-4.49,2.77h0a2.49,2.49,0,0,0-.59.41l-.12.16c0,.05-.1.09-.11.13s0,.07.1.05c-.17.42.41-1.13.27-.68-.2.62-1.27,6-1.64,7.29s-2.62,10.18-3,11.39-2.26,8.9-3,11.32c-.22.73-1,3.45-1.13,4.11-.06.31-.13.61-.2.92l-.12,0,0-.06c-.22-.4-.47-.77-.68-1.17-.09-.16-.16-.34-.24-.51l-.07-.15c-.17-.54-.34-1.08-.53-1.6-1.41-3.95-3.14-7.75-4.55-11.7-1.31-3.63-6.92-19.25-9.11-23-.13-.2-8.34,5.72-8.39,5.65,2.07,3.5,3.29,7.54,5,11.35s3,7.45,4.39,11.33c1.33,3.68,2.59,7.63,4,11.28,1.14,3,1.93,6.37,3.64,9,.54-.31,1.09-.61,1.61-1,1.41-.94,2.76-2,4.19-2.87.68-.41,1.32-.86,2-1.26a11.66,11.66,0,0,0,1.27-.78c.11-.08.21-.19.32-.27l.2-.1,0-.05A3.53,3.53,0,0,1,770,256s0,0,0,0,.17-.09.14-.05h0a.74.74,0,0,1,.17-.12c.17-.14.34-.29.51-.42a2.77,2.77,0,0,1,.52-.38c.06-.25.12-.49.17-.74s.11-.5.19-.75v0c0-.16.08-.33.13-.49s0-.22.08-.33a1.11,1.11,0,0,1,.11-.46c0-.2.08-.41.11-.61h0a14.09,14.09,0,0,1,.36-1.59l.16-.49.08-.41a.8.8,0,0,1,.08-.16c.13-.58.26-1.15.4-1.72v0s0,0,0-.08,0-.14,0-.21l0-.12a.54.54,0,0,1,0-.12c.06-.29.13-.58.2-.87v0l.09-.28a11.73,11.73,0,0,0,.55-1.77c0-.21.07-.41.1-.62,1-3.52,2.24-7.34,3.37-11.11.94-3.13,2.5-9.08,3.73-13.15C781.42,218.75,781.47,218.57,781.48,218.5Z"/><path d="M360.22,233c-.32-5.37-1.28-15.46-6.77-17.74-6.12-2.55-12.09-.57-17,3.27a.1.1,0,0,1,0,.05,1.81,1.81,0,0,1-.21.18h0a.85.85,0,0,1-.15.32,2.75,2.75,0,0,1-.22.26.75.75,0,0,1-.42.2l-.16.16c-.17.16-.35.31-.53.45s-.39.31-.58.48a2.35,2.35,0,0,0-.46.49,2.52,2.52,0,0,1-.5.48l-.14.12c-.37.39-.74.78-1.09,1.19-1-12.66-.15-25.86-.15-38.56,0,1.67-8.39,3.42-8.39,5.23,0,13.14-.84,26.74.26,39.81.45,5.41.27,10.87.28,16.31,0,5.78.59,11.45.53,17.25l3.95-2.47c.54-.23,1.09-.45,1.6-.68a7.5,7.5,0,0,0,1.4.55c3.08.77,7.36-.13,10.64.05,3.5.18,9.37-4.8,12.12-8,.34,0,.33.11.9-.64a32.56,32.56,0,0,0,4-7c.05-.11.11-.21.17-.32a.22.22,0,0,1-.07.06,9.44,9.44,0,0,0,.61-2.62A82.52,82.52,0,0,0,360.22,233Zm-7.85,13.75a4.6,4.6,0,0,0-.13,1.13,1.84,1.84,0,0,1-.06.62,16.8,16.8,0,0,1-.68,2.59l-.09.19a1.75,1.75,0,0,1,0,.46c0,.16-.14.3-.19.45a1.34,1.34,0,0,1-.27.59,1,1,0,0,1-.05.16,1.33,1.33,0,0,1-.14.19l0,0s0,0,0,0-.17.23-.24.36c.07-.07.08-.06,0,0a.42.42,0,0,1-.11.18l-.07.07v.07a.78.78,0,0,1-.16.33,2.09,2.09,0,0,1-.29.42,1.32,1.32,0,0,1-.25.16h0s0,0,0,.05l-.14.14a.57.57,0,0,1-.29.49.54.54,0,0,1-.47.31.74.74,0,0,1-.31.22,2.59,2.59,0,0,1-.56,0l-.39,0a1,1,0,0,1-.41.11.59.59,0,0,1-.46-.21,24.75,24.75,0,0,1-6.69-.85c-3.57-.93-4.46-4.87-7.22-6.62h0c-.12-2.43-.24-4.87-.24-7.32,0-5.67.23-11.39-.28-17,0-.12,0-.24,0-.36a35.72,35.72,0,0,0,6.36-4.9,15.8,15.8,0,0,1,7.48,1.81c3.45,1.71,5.42,13.56,5.55,15.09.1.37.2.73.28,1.07s.06.7.13,1a6.19,6.19,0,0,1,.17,1.21c0,.47.23.37.25.84S352.53,246,352.37,246.76Z"/></svg>