<?xml version="1.0" encoding="UTF-8"?>
<svg xmlns="http://www.w3.org/2000/svg" viewBox="0 0 1074 450">
  <defs>
    <style>
      .cls-1 {
        font-size: 10px;
      }

      .cls-1, .cls-2 {
        font-family: BasicSans-Regular, 'Basic Sans';
      }

      .cls-3 {
        letter-spacing: -.02em;
      }

      .cls-4 {
        letter-spacing: 0em;
      }

      .cls-5 {
        letter-spacing: -.03em;
      }

      .cls-6 {
        letter-spacing: 0em;
      }

      .cls-7 {
        fill: #fff;
        stroke-width: .25px;
      }

      .cls-7, .cls-8, .cls-9 {
        stroke-miterlimit: 10;
      }

      .cls-7, .cls-9 {
        stroke: #000;
      }

      .cls-8 {
        opacity: .48;
        stroke: #4d4d4d;
      }

      .cls-8, .cls-9 {
        fill: none;
      }

      .cls-10 {
        letter-spacing: -.09em;
      }

      .cls-11 {
        letter-spacing: 0em;
      }

      .cls-12 {
        letter-spacing: -.03em;
      }

      .cls-13 {
        letter-spacing: 0em;
      }

      .cls-14 {
        letter-spacing: -.06em;
      }

      .cls-15 {
        letter-spacing: 0em;
      }

      .cls-16 {
        letter-spacing: -.02em;
      }

      .cls-2 {
        font-size: 12px;
      }

      .cls-17 {
        letter-spacing: -.05em;
      }

      .cls-18 {
        letter-spacing: -.02em;
      }

      .cls-19 {
        letter-spacing: 0em;
      }

      .cls-20 {
        letter-spacing: -.02em;
      }

      .cls-21 {
        letter-spacing: -.02em;
      }

      .cls-22 {
        letter-spacing: 0em;
      }

      .cls-23 {
        letter-spacing: -.01em;
      }

      .cls-24 {
        letter-spacing: -.02em;
      }

      .cls-25 {
        letter-spacing: -.02em;
      }

      .cls-9 {
        stroke-width: .5px;
      }
    </style>
  </defs>
  <g id="Layer_2" data-name="Layer 2">
    <g>
      <g>
        <path d="m122.66,150.59c0,35.44,0,70.89,0,106.33,0-.36,3.96-3.07,4.43-3.48.76-.66,4.06-2.77,4.06-3.9,0-35.44,0-70.89,0-106.33,0,.36-3.96,3.07-4.43,3.48-.76.66-4.06,2.77-4.06,3.9h0Z"/>
        <path d="m122.91,198.52h45.68c1.21,0,3.56-2.72,4.43-3.48.65-.57,3.33-3.9,4.06-3.9h-45.68c-1.21,0-3.56,2.72-4.43,3.48-.65.57-3.33,3.9-4.06,3.9h0Z"/>
        <path d="m169.09,150.59c0,35.44,0,70.89,0,106.33,0-.36,3.96-3.07,4.43-3.48.76-.66,4.06-2.77,4.06-3.9,0-35.44,0-70.89,0-106.33,0,.36-3.96,3.07-4.43,3.48-.76.66-4.06,2.77-4.06,3.9h0Z"/>
      </g>
      <g>
        <path d="m202.94,199.67c-.14-1.58.48-2.19.88-3.68,1.43-1.92.54-1.21-2.68,2.12.67-.39,1.37-.75,2.08-1.06,2.55-1.1,5.61-1.8,8.36-1.05,5.95,1.63,8.63,8.76,9.85,14.11,3.43,15.07,2.3,31.76,1.85,47.08.01-.4,3.94-3.05,4.43-3.48.79-.69,4.03-2.73,4.06-3.9.33-11.05.41-22.14-.22-33.18-.47-8.18-.8-18.62-6.79-24.96-5.21-5.51-12.53-3.14-17.93.79-4.04,2.93-12.91,8.69-12.4,14.58-.02-.25,4.01-3.11,4.43-3.48.68-.59,4.15-2.89,4.06-3.9h0Z"/>
        <path d="m228.1,212.94c-6.52,4.04-13.97,6.17-20.55,10.08-5.81,3.45-11.88,8.36-16.02,13.73-4.78,6.19-5.31,14.82,2.44,18.88,8.65,4.53,18-.54,25.53-4.9,2.88-1.67,5.99-6.02,8.09-7.23-6.44,3.72-13.79,7.92-21.5,6.08-5.67-1.35-10.19-5.7-9.75-11.81.1-1.43.41-2.55.97-3.86.49-1.11,1.08-2.17,1.77-3.17,1.12-1.33.95-1.35-.49-.09-1.74,1.26-1.63,1.23.34-.1.7-.43,1.41-.83,2.13-1.22,1.09-.59,2.21-1.13,3.34-1.66,5.24-2.46,10.67-4.45,15.61-7.51,2.84-1.76,6-5.93,8.09-7.23h0Z"/>
      </g>
      <g>
        <path d="m246.46,197.02v60.38c0-.36,3.96-3.07,4.43-3.48.76-.66,4.06-2.77,4.06-3.9v-60.38c0,.36-3.96,3.07-4.43,3.48-.76.66-4.06,2.77-4.06,3.9h0Z"/>
        <path d="m256.8,197.83c4.86-4.56,13.67-3.2,17.49,1.73s3.73,12.02,3.75,18.16c.04,13.23.06,26.45.1,39.68,0-.36,3.96-3.07,4.43-3.48.76-.66,4.06-2.77,4.06-3.9-.02-8.87-.05-17.74-.07-26.62-.02-8.12,1.11-17.33-.97-25.25s-9.11-12.39-17.17-9.27c-6.85,2.65-12.65,8.95-17.89,13.87-1.39,1.31-1.2,1.29.26.3,2.16-1.46,4.11-3.44,6-5.22h0Z"/>
        <path d="m284.16,201.75c5.35-3.67,15.57-10.08,21.8-5.16,4.73,3.74,4.8,11.39,5.23,16.84,1.15,14.61,1.08,29.38-.23,43.97.04-.49,3.89-3.01,4.43-3.48.86-.74,3.95-2.66,4.06-3.9,1.41-15.63,1.48-31.54-.04-47.17-.56-5.77-1.69-14.29-8.83-15.28-6.5-.9-14.21,4.13-19.26,7.6-2.1,1.44-4.02,3.24-5.87,4.97-.39.36-2.95,2.77-1.27,1.61h0Z"/>
      </g>
      <g>
        <path d="m336.33,151.34v106.33c0-.36,3.96-3.07,4.43-3.48.76-.66,4.06-2.77,4.06-3.9v-106.33c0,.36-3.96,3.07-4.43,3.48-.76.66-4.06,2.77-4.06,3.9h0Z"/>
        <path d="m340.74,202.96c6.57-5.09,15.25-9.08,23.49-5.56,7.06,3.01,11.96,8.15,14.82,15.24s3.26,15,2.12,22.66c-.47,3.13-1.1,6.31-2.13,9.31-.19.55-1.48,3.82-1.63,3.63,2.09-1.73,2.17-2,.24-.81-1.24.63-2.54,1.12-3.89,1.48-1.55.46-3.23,2.44-4.43,3.48-.99.86-2.87,3.55-4.06,3.9,7.38-2.17,14.74-8.19,19.62-14.05,5.39-6.48,6.05-18.91,5.18-26.81-1.21-11.05-6.56-20.15-16.65-25.04-9.69-4.69-19.38,1.2-26.94,7.06-2.05,1.59-4.27,3.28-6,5.22-1.07,1.2-1.48,1.65.26.3h0Z"/>
        <path d="m336.36,250.97c11.39,7.9,24.87,9.45,36.7,1.64,2.8-1.85,6.01-5.86,8.09-7.23-11.76,7.76-25.07,6-36.3-1.79-1.08-.75-8.08,7.66-8.49,7.38h0Z"/>
      </g>
      <g>
        <path d="m402.99,193.52c-.06,8.54-.15,17.08-.16,25.63-.01,7.78-.67,16.07.54,23.78,1.14,7.31,4.32,14.25,12.64,14.7s14.47-5.35,20.71-9.55c2.78-1.87,6.02-5.84,8.09-7.23-6.48,4.36-13.28,10.54-21.71,9.27-7.98-1.2-10.64-8.81-11.43-15.9-.85-7.64-.37-15.61-.35-23.29.02-8.26.11-16.52.16-24.79,0,.37-3.95,3.06-4.43,3.48-.77.67-4.05,2.76-4.06,3.9h0Z"/>
        <path d="m441.66,194.54v63.1c0-.36,3.96-3.07,4.43-3.48.76-.66,4.06-2.77,4.06-3.9v-63.1c0,.36-3.96,3.07-4.43,3.48-.76.66-4.06,2.77-4.06,3.9h0Z"/>
      </g>
      <g>
        <path d="m464.63,194.97v61.16c0-.36,3.96-3.07,4.43-3.48.76-.66,4.06-2.77,4.06-3.9v-61.16c0,.36-3.96,3.07-4.43,3.48-.76.66-4.06,2.77-4.06,3.9h0Z"/>
        <path d="m475.41,197.9c-1.54,1.6,1.72-.98,2.29-1.27,1.32-.66,2.81-1.29,4.29-1.43,2.09-.19,4.09.7,5.92,1.61,4.75,2.37,9.13,6.15,11.24,11.09-.29-.68,9.1-5.97,8.49-7.38-2.94-6.85-12.31-14.83-20.13-11.89-7.41,2.78-14.25,9.84-19.62,15.43-1.5,1.56,1.61-.9,1.78-1.03,1.98-1.6,3.97-3.28,5.74-5.12h0Z"/>
      </g>
      <g>
        <path d="m515.18,202.43c-7.29,7-11.82,20.64-4.94,29.51,2.73,3.51,7.7,5.46,12.07,4.35,4.13-1.04,7.59-4.96,10.61-7.72.31-.28,3.09-2.51,1.27-1.61-2.09,1.03-4.17,3.41-5.87,4.97l-.89.82c2.12-1.76,4.23-3.53,6.35-5.29-6.26,4.2-14.22.27-16.9-6.2-2.98-7.19-1.11-18.28,4.58-23.74,1.37-1.32,1.2-1.29-.26-.3-2.15,1.45-4.14,3.43-6,5.22h0Z"/>
        <path d="m520.15,198.48c-1.53,1.34,3.76-.75,4.77-.85,1.7-.17,3.46-.07,5.11.39,3.54.98,6.27,3.6,8,6.77s2.38,7.26,1.82,10.96c-.31,2.03-1.03,4.03-1.93,5.87-.68,1.36-1.46,2.65-2.36,3.88-1.26,1.38-1.35,1.64-.28.76-2.1,1.43-4.02,3.25-5.87,4.97-.39.36-2.95,2.76-1.27,1.61,9.74-6.65,22.5-17.35,20.07-30.6-1.22-6.64-6.46-12.17-13.47-12.07-6.14.09-10.59,4.06-14.96,7.89-.46.4-3.72,3.95-4.06,3.9.91.14,3.93-3.04,4.43-3.48h0Z"/>
        <path d="m533.31,227.67c-7.36,3.7-14.33,8.95-19.46,15.45-2.27,2.87-5.37,7.8-3.89,11.64s7.74,3.94,11.1,4.24c9.44.86,20.74-.81,27.67,7.29,3.71,4.33,3.85,9.89,1.73,14.96s-5.89,12.14-9.74,14.71c-2.79,1.86-6.02,5.84-8.09,7.23,11.96-7.99,42.06-35.01,20.09-47.9-8.26-4.85-18.47-2.56-27.52-4.3-5.01-.96-7.92-2.8-6.56-8.29.22-.87,3.02-7.92,4.29-7.57-.19-.05-6.25,4.39-1.4,1.67,1.21-.68,2.46-1.29,3.7-1.91,2.95-1.48,5.98-6.17,8.09-7.23h0Z"/>
        <path d="m508.43,265.56c-7.82,8.6-17.19,23.6-7.54,34.5,8.37,9.45,24.84,8.63,34.3,1.71,2.06-1.51,4-3.23,5.87-4.97.38-.36,2.92-2.82,1.27-1.61-8.95,6.55-25.25,6.2-32.95-2.5-9.13-10.31-1-24.96,6.57-33.28,1.45-1.59-1.59.89-1.78,1.03-1.96,1.59-4.04,3.25-5.74,5.12h0Z"/>
        <path d="m549.59,193.67c-.08.1-7.14,4.94-4.27,3.96.92-.31,1.68-.65,2.62-.84,1.26-.25,2.55-.32,3.83-.18,2.6.28,4.89,1.38,6.77,3.18.55.52,8.55-7.33,8.49-7.38-8.73-8.31-19.95,1.21-25.73,8.27-.08.1,2.7-1.9,3.19-2.32,1.73-1.46,3.65-2.93,5.09-4.69h0Z"/>
      </g>
      <g>
        <path d="m569.14,205.95c-4.46,8.19-7.87,17.19-8.07,26.62-.18,8.33,2.15,19.87,11.63,22.02,6.65,1.5,13.9-1.43,19.13-5.43s10.96-8.3,12.51-14.72c-.17.71-3.75,2.88-4.43,3.48-1.02.89-3.72,2.5-4.06,3.9-.4,1.66-1.07,2.92-1.79,4.44-1.66,2.13-.85,1.46,2.45-2.01l-1.22.65c-3.2.48-5.91,2.44-9.31,2.66-6.74.44-11.73-2.93-14.21-9.18-5.24-13.2-.59-27.95,5.87-39.81-.6,1.1-3.41,2.59-4.43,3.48-1.3,1.13-3.22,2.36-4.06,3.9h0Z"/>
        <path d="m576.67,200.53c.6-.83,1.28-1.63,1.85-2.48,2.18-3.25-1.04,1.56-1.8,1.21.67.31,4.99-1.86,6.45-1.84,4.28.06,6.49,2.52,7.75,6.41,2.26,6.97,2.73,14.96,2.16,22.23.04-.47,3.9-3.02,4.43-3.48.84-.73,3.97-2.67,4.06-3.9.59-7.63,1.37-27.85-9.38-28.6-4.82-.34-8.75,2.68-12.25,5.58-4.31,3.57-8.27,7.33-11.56,11.87,1.41-1.95,6.33-4.29,8.29-7h0Z"/>
        <path d="m563.4,236.36c9.39-4.24,19.26-6.85,29.02-10.07,1.58-.52,3.2-2.41,4.43-3.48,1.04-.9,2.83-3.49,4.06-3.9-9.89,3.26-19.9,5.92-29.42,10.22-2.98,1.35-5.99,6.28-8.09,7.23h0Z"/>
      </g>
      <g>
        <path d="m656.07,158.56c-2.85-4.25-5.62-8.23-10.43-10.43-3.69-1.68-8.76-3.1-12.49-.88-3.03,1.8-6.67,4.9-8.84,7.71-2.85,3.7-3.09,9.4-3.17,13.84-.28,14.49.4,29.07.52,43.57s.25,30.08.66,45.11c0-.33,3.97-3.08,4.43-3.48.74-.64,4.09-2.81,4.06-3.9-.49-17.99-.58-35.99-.73-53.99-.08-8.92-.17-17.84-.35-26.76-.08-4.03-.3-8.1.12-12.12.18-1.72.77-7.32,1.56-8.05l-6.35,5.29c3.8-2.22,9.49-.39,13.08,1.51,4.27,2.26,6.82,6.05,9.43,9.95-.03-.04,8.98-6.65,8.49-7.38h0Z"/>
        <path d="m611.62,194.94c7.17,0,14.34,0,21.51,0l8.49-7.38c-8.1,0-16.2,0-24.29,0-1.21,0-3.56,2.72-4.43,3.48-.65.57-3.33,3.9-4.06,3.9h37.23c1.21,0,3.56-2.72,4.43-3.48.65-.57,3.33-3.9,4.06-3.9h-37.23l-8.49,7.38c8.1,0,16.2,0,24.29,0,1.21,0,3.56-2.72,4.43-3.48.65-.57,3.33-3.9,4.06-3.9-7.17,0-14.34,0-21.51,0-1.21,0-3.56,2.72-4.43,3.48-.65.57-3.33,3.9-4.06,3.9h0Z"/>
      </g>
      <g>
        <path d="m657.62,204.56c-8.46,10.7-11.95,25.38-7.68,38.59,3.83,11.84,18.63,15.03,28.12,8.23,2.08-1.49,4.01-3.24,5.87-4.97.39-.36,2.93-2.8,1.27-1.61-9.76,6.99-24.21.93-27.16-10.36-3.37-12.9-.37-26.48,7.86-36.88-1.53,1.93-6.2,4.36-8.29,7h0Z"/>
        <path d="m660.74,201.94c6.2-4.21,11.98-8.03,19.63-5.7,6.35,1.93,9.17,8.44,10.09,14.58,2.17,14.46-3.3,27.36-11.56,39.02,1.39-1.96,6.36-4.28,8.29-7,8.32-11.76,13.96-24.8,11.76-39.4-1.03-6.84-4.13-12.89-11.02-14.81-7.31-2.03-13.23,2.1-19.1,6.08-2.78,1.88-6.02,5.82-8.09,7.23h0Z"/>
      </g>
      <g>
        <path d="m715.05,193.84v63.65c0-.36,3.96-3.07,4.43-3.48.76-.66,4.06-2.77,4.06-3.9v-63.65c0,.36-3.96,3.07-4.43,3.48-.76.66-4.06,2.77-4.06,3.9h0Z"/>
        <path d="m720.97,199.87c5.77-3.9,13.77-5.8,20.46-3.08,6.24,2.54,8.48,8.86,9.43,15.04,1.04,6.77.76,13.73.81,20.55.05,8.37.1,16.74.16,25.11,0-.35,3.96-3.07,4.43-3.48.76-.66,4.07-2.78,4.06-3.9-.06-8.92-.11-17.84-.17-26.75-.04-6.72.22-13.6-1.02-20.23s-3.92-12.12-10.44-14.15-14.05-.11-19.63,3.67c-2.78,1.88-6.02,5.83-8.09,7.23h0Z"/>
      </g>
      <g>
        <path d="m780.01,174.56c.23,10.37.19,20.74.11,31.11-.07,10.36-1.07,21.5.92,31.71,1.78,9.13,9.16,18.19,19.42,16.5,6.85-1.12,14.52-8.08,18.16-13.74-1.27,1.97-6.5,4.22-8.29,7-1.83,2.59-.66,1.79,3.48-2.4-1.11.66-2.29,1.15-3.54,1.48-1.75.46-3.58.59-5.37.37-3.92-.48-7.53-2.59-10.18-5.47-5.78-6.29-5.98-15.3-6.09-23.35-.23-16.87.22-33.73-.15-50.59,0,.33-3.97,3.08-4.43,3.48-.74.64-4.08,2.8-4.06,3.9h0Z"/>
        <path d="m768.38,197.36c11.92,0,23.84,0,35.76,0,1.21,0,3.56-2.72,4.43-3.48.65-.57,3.33-3.9,4.06-3.9-12.92,0-25.83,0-38.75,0-1.21,0-3.56,2.72-4.43,3.48-.65.57-3.33,3.9-4.06,3.9,12.92,0,25.83,0,38.75,0l8.49-7.38c-11.92,0-23.84,0-35.76,0-1.21,0-3.56,2.72-4.43,3.48-.65.57-3.33,3.9-4.06,3.9h0Z"/>
      </g>
      <g>
        <path d="m823.69,202.69c-2.85,4.54-5.7,9.99-1.51,14.71,3.76,4.24,9.95,5.72,15.07,7.56,4.61,1.65,9.54,3.7,12.65,7.69,1.48,1.9,2.39,4.1,2.58,6.51.08,1.02.06,2.07-.16,3.08-.48,2.21-3.49,4.98.99,1.1-.47.4-3.72,3.96-4.06,3.9.91.14,3.93-3.04,4.43-3.48,3.26-2.82,6.89-5.51,7.31-10.12.53-5.81-3.51-10.3-8.24-13.02-5.56-3.2-12.11-4.14-17.7-7.28-7.81-4.4-7.56-10.49-3.06-17.65-1.24,1.97-6.53,4.21-8.29,7h0Z"/>
        <path d="m822.67,245.37c3.06,7.02,10.75,10.68,18.06,7.91,5.52-2.09,11.08-7.46,14.7-12.02-1.53,1.93-6.19,4.37-8.29,7l4.23-3.46-1.2.66c-1.61.49-2.75,1.08-4.37,1.28-2.05.26-4.12.07-6.08-.6-3.98-1.36-6.91-4.36-8.56-8.16.29.65-9.1,5.99-8.49,7.38h0Z"/>
        <path d="m833.64,194.2l-4.16,3.42c.71-.46,1.48-.8,2.29-1.02,1.03-.36,1.95-.6,3.03-.67,2.1-.15,4.1.29,5.98,1.25,3.76,1.92,6.12,5.44,7.49,9.33-.33-.93,9.07-5.72,8.49-7.38-2.43-6.94-8.94-12.57-16.61-9.94-5.61,1.92-11.14,7.52-14.79,12.01,1.56-1.92,6.16-4.39,8.29-7h0Z"/>
      </g>
      <g>
        <path d="m872.68,165.82v17.97c0-.36,3.96-3.07,4.43-3.48.76-.66,4.06-2.77,4.06-3.9v-17.97c0,.36-3.96,3.07-4.43,3.48-.76.66-4.06,2.77-4.06,3.9h0Z"/>
        <path d="m872.93,193.71c0,20.57,0,41.14,0,61.72,0-.36,3.96-3.07,4.43-3.48.76-.66,4.06-2.77,4.06-3.9,0-20.57,0-41.14,0-61.72,0,.36-3.96,3.07-4.43,3.48-.76.66-4.06,2.77-4.06,3.9h0Z"/>
      </g>
      <g>
        <path d="m892.11,193.58c6.37,20.8,13.16,41.46,19.79,62.17-.33-1.03,9.06-5.61,8.49-7.38-6.63-20.71-13.42-41.37-19.79-62.17.33,1.08-9.05,5.57-8.49,7.38h0Z"/>
        <path d="m928.35,193.46c-5.54,20.5-10.94,41.05-16.06,61.66.18-.72,3.74-2.88,4.43-3.48,1.03-.89,3.71-2.49,4.06-3.9,5.12-20.61,10.52-41.16,16.06-61.66-.2.76-3.71,2.86-4.43,3.48-1.05.91-3.67,2.47-4.06,3.9h0Z"/>
      </g>
    </g>
  </g>
  <g id="Layer_3" data-name="Layer 3">
    <ellipse class="cls-7" cx="504.18" cy="202.34" rx="3" ry="3.09"/>
    <circle class="cls-7" cx="196.96" cy="254.18" r="3"/>
    <circle class="cls-7" cx="279" cy="192.5" r="3"/>
    <circle class="cls-7" cx="360.72" cy="227.55" r="3"/>
    <circle class="cls-7" cx="514" cy="248" r="3"/>
    <circle class="cls-7" cx="584.08" cy="207.85" r="3"/>
    <circle class="cls-7" cx="576.05" cy="237.77" r="3"/>
    <circle class="cls-7" cx="668" cy="200.5" r="3"/>
    <circle class="cls-7" cx="740.6" cy="189.76" r="3"/>
    <circle class="cls-7" cx="810.34" cy="251.65" r="3"/>
    <circle class="cls-7" cx="837.34" cy="222.59" r="3"/>
    <circle class="cls-7" cx="914.62" cy="252.67" r="3"/>
    <circle class="cls-7" cx="916.81" cy="226.56" r="3"/>
    <circle class="cls-7" cx="539.19" cy="292.29" r="3"/>
    <circle class="cls-7" cx="299.7" cy="229.14" r="3"/>
    <circle class="cls-7" cx="636.98" cy="194.5" r="3"/>
    <circle class="cls-7" cx="126.38" cy="215.03" r="3"/>
    <line class="cls-9" x1="123.69" y1="214.6" x2="57.32" y2="214.6"/>
    <text class="cls-2" transform="translate(26.56 215.05)"><tspan x="0" y="0">S</tspan><tspan class="cls-15" x="6.67" y="0">t</tspan><tspan x="11.44" y="0">em</tspan></text>
    <text class="cls-2" transform="translate(739.67 99.84)"><tspan x="0" y="0">Shoulde</tspan><tspan class="cls-20" x="43.13" y="0">r</tspan></text>
    <text class="cls-2" transform="translate(696.31 323.01)"><tspan x="0" y="0">St</tspan><tspan class="cls-18" x="11.52" y="0">r</tspan><tspan x="15.47" y="0">ess</tspan></text>
    <text class="cls-2" transform="translate(542.28 140.02)"><tspan x="0" y="0">Ea</tspan><tspan class="cls-20" x="12.96" y="0">r</tspan></text>
    <text class="cls-2" transform="translate(537.99 380.45)"><tspan class="cls-6" x="0" y="0">L</tspan><tspan class="cls-22" x="6.1" y="0">oop</tspan></text>
    <text class="cls-2" transform="translate(497.42 346.03)"><tspan x="0" y="0">Lin</tspan><tspan class="cls-3" x="15.76" y="0">k</tspan></text>
    <line class="cls-9" x1="504.49" y1="199.32" x2="504.49" y2="114.27"/>
    <circle class="cls-7" cx="556.41" cy="188.47" r="3"/>
    <line class="cls-9" x1="556.74" y1="185.54" x2="556.74" y2="142.12"/>
    <text class="cls-2" transform="translate(582.75 115.98)"><tspan class="cls-16" x="0" y="0">E</tspan><tspan class="cls-21" x="6.32" y="0">y</tspan><tspan class="cls-22" x="12.35" y="0">e</tspan></text>
    <line class="cls-9" x1="584.03" y1="204.94" x2="584.03" y2="118.63"/>
    <line class="cls-9" x1="740.29" y1="186.56" x2="740.29" y2="102.8"/>
    <text class="cls-2" transform="translate(837.32 131.7)"><tspan x="0" y="0">Spine</tspan></text>
    <line class="cls-9" x1="837.56" y1="219.75" x2="837.56" y2="135.99"/>
    <circle class="cls-7" cx="877.43" cy="167.69" r="3"/>
    <text class="cls-2" transform="translate(874.34 78.34)"><tspan x="0" y="0">Title</tspan></text>
    <line class="cls-9" x1="877.65" y1="164.86" x2="877.65" y2="81.1"/>
    <text class="cls-2" transform="translate(915.67 135.34)"><tspan x="0" y="0">C</tspan><tspan class="cls-18" x="7.64" y="0">r</tspan><tspan class="cls-23" x="11.59" y="0">o</tspan><tspan class="cls-15" x="18.29" y="0">t</tspan><tspan x="23.05" y="0">ch</tspan></text>
    <text class="cls-2" transform="translate(939.11 161.79)"><tspan class="cls-19" x="0" y="0">C</tspan><tspan x="7.57" y="0">A</tspan><tspan class="cls-5" x="14.95" y="0">P</tspan><tspan class="cls-11" x="21.65" y="0" xml:space="preserve"> Heig</tspan><tspan class="cls-13" x="48.36" y="0">h</tspan><tspan class="cls-11" x="55.03" y="0">t</tspan></text>
    <text class="cls-2" transform="translate(946.82 204.21)"><tspan class="cls-14" x="0" y="0">X</tspan><tspan x="6.4" y="0">-heig</tspan><tspan class="cls-13" x="33.34" y="0">h</tspan><tspan x="40.01" y="0">t</tspan></text>
    <text class="cls-2" transform="translate(946.82 265.82)"><tspan x="0" y="0">Baseline</tspan></text>
    <text class="cls-2" transform="translate(945.12 319.27)"><tspan x="0" y="0">Descende</tspan><tspan class="cls-20" x="52.93" y="0">r</tspan><tspan x="56.77" y="0"> </tspan></text>
    <line class="cls-9" x1="917.05" y1="223.41" x2="917.05" y2="139.65"/>
    <line class="cls-9" x1="278.97" y1="189.74" x2="278.97" y2="102.29"/>
    <line class="cls-9" x1="196.96" y1="257.18" x2="196.96" y2="317.27"/>
    <line class="cls-9" x1="514.75" y1="252.07" x2="514.75" y2="334.12"/>
    <text class="cls-2" transform="translate(195.7 328.92)"><tspan x="0" y="0">B</tspan><tspan class="cls-13" x="7.3" y="0">o</tspan><tspan x="14" y="0">wl</tspan></text>
    <text class="cls-2" transform="translate(309.99 316.17)"><tspan x="0" y="0">Cou</tspan><tspan class="cls-13" x="21.1" y="0">n</tspan><tspan class="cls-15" x="27.76" y="0">t</tspan><tspan x="32.52" y="0">e</tspan><tspan class="cls-20" x="38.89" y="0">r</tspan></text>
    <text class="cls-2" transform="translate(592.55 350.8)"><tspan x="0" y="0">C</tspan><tspan class="cls-18" x="7.64" y="0">r</tspan><tspan x="11.59" y="0">ossba</tspan><tspan class="cls-20" x="43.21" y="0">r</tspan></text>
    <text class="cls-2" transform="translate(572.23 395)"><tspan x="0" y="0">Ape</tspan><tspan class="cls-13" x="20.84" y="0">r</tspan><tspan class="cls-24" x="24.88" y="0">a</tspan><tspan x="31.1" y="0">tu</tspan><tspan class="cls-21" x="42.59" y="0">r</tspan><tspan x="46.54" y="0">e</tspan></text>
    <text class="cls-2" transform="translate(460.38 112.13)"><tspan class="cls-10" x="0" y="0">T</tspan><tspan x="5.38" y="0">erminal</tspan></text>
    <text class="cls-1" transform="translate(278.02 99.09)"><tspan x="0" y="0">Shoulde</tspan><tspan class="cls-12" x="35.94" y="0">r</tspan></text>
    <line class="cls-9" x1="299.96" y1="232.34" x2="315.02" y2="304.16"/>
    <line class="cls-9" x1="360.3" y1="230.63" x2="346" y2="305.18"/>
    <line class="cls-9" x1="539.57" y1="295.14" x2="539.57" y2="369.16"/>
    <line class="cls-9" x1="637.38" y1="197.56" x2="637.38" y2="341.42"/>
    <line class="cls-9" x1="575.76" y1="240.4" x2="575.76" y2="384.26"/>
    <line class="cls-9" x1="667.96" y1="203.39" x2="697.32" y2="312.67"/>
    <text class="cls-2" transform="translate(784.23 336.97)"><tspan x="0" y="0">Finial</tspan></text>
    <text class="cls-2" transform="translate(913.95 338.2)"><tspan class="cls-17" x="0" y="0">V</tspan><tspan x="6.65" y="0">er</tspan><tspan class="cls-4" x="17.16" y="0">t</tspan><tspan class="cls-25" x="21.92" y="0">e</tspan><tspan x="28.09" y="0">x</tspan></text>
    <line class="cls-9" x1="914.6" y1="255.68" x2="914.6" y2="327.69"/>
    <circle class="cls-7" cx="874.43" cy="226.12" r="3"/>
    <text class="cls-2" transform="translate(838.78 313.05)"><tspan x="0" y="0">S</tspan><tspan class="cls-15" x="6.67" y="0">t</tspan><tspan x="11.44" y="0">em</tspan></text>
    <polyline class="cls-9" points="871.62 226.37 865.4 226.63 865.4 305.27"/>
    <circle class="cls-7" cx="678.55" cy="247.82" r="3"/>
    <line class="cls-8" x1="106.17" y1="147.48" x2="945.66" y2="147.48"/>
    <line class="cls-8" x1="106.17" y1="189.27" x2="945.66" y2="189.27"/>
    <line class="cls-8" x1="106.17" y1="253.18" x2="945.66" y2="253.18"/>
    <line class="cls-8" x1="106.17" y1="306.63" x2="945.66" y2="306.63"/>
  </g>
</svg>