<?xml version="1.0" encoding="UTF-8"?>
<svg id="Layer_2" data-name="Layer 2" xmlns="http://www.w3.org/2000/svg" viewBox="0 0 1074 450">
  <g>
    <path d="m122.66,150.59c0,35.44,0,70.89,0,106.33,0-.36,3.96-3.07,4.43-3.48.76-.66,4.06-2.77,4.06-3.9,0-35.44,0-70.89,0-106.33,0,.36-3.96,3.07-4.43,3.48-.76.66-4.06,2.77-4.06,3.9h0Z"/>
    <path d="m122.91,198.52h45.68c1.21,0,3.56-2.72,4.43-3.48.65-.57,3.33-3.9,4.06-3.9h-45.68c-1.21,0-3.56,2.72-4.43,3.48-.65.57-3.33,3.9-4.06,3.9h0Z"/>
    <path d="m169.09,150.59c0,35.44,0,70.89,0,106.33,0-.36,3.96-3.07,4.43-3.48.76-.66,4.06-2.77,4.06-3.9,0-35.44,0-70.89,0-106.33,0,.36-3.96,3.07-4.43,3.48-.76.66-4.06,2.77-4.06,3.9h0Z"/>
  </g>
  <g>
    <path d="m202.94,199.67c-.14-1.58.48-2.19.88-3.68,1.43-1.92.54-1.21-2.68,2.12.67-.39,1.37-.75,2.08-1.06,2.55-1.1,5.61-1.8,8.36-1.05,5.95,1.63,8.63,8.76,9.85,14.11,3.43,15.07,2.3,31.76,1.85,47.08.01-.4,3.94-3.05,4.43-3.48.79-.69,4.03-2.73,4.06-3.9.33-11.05.41-22.14-.22-33.18-.47-8.18-.8-18.62-6.79-24.96-5.21-5.51-12.53-3.14-17.93.79-4.04,2.93-12.91,8.69-12.4,14.58-.02-.25,4.01-3.11,4.43-3.48.68-.59,4.15-2.89,4.06-3.9h0Z"/>
    <path d="m228.1,212.94c-6.52,4.04-13.97,6.17-20.55,10.08-5.81,3.45-11.88,8.36-16.02,13.73-4.78,6.19-5.31,14.82,2.44,18.88,8.65,4.53,18-.54,25.53-4.9,2.88-1.67,5.99-6.02,8.09-7.23-6.44,3.72-13.79,7.92-21.5,6.08-5.67-1.35-10.19-5.7-9.75-11.81.1-1.43.41-2.55.97-3.86.49-1.11,1.08-2.17,1.77-3.17,1.12-1.33.95-1.35-.49-.09-1.74,1.26-1.63,1.23.34-.1.7-.43,1.41-.83,2.13-1.22,1.09-.59,2.21-1.13,3.34-1.66,5.24-2.46,10.67-4.45,15.61-7.51,2.84-1.76,6-5.93,8.09-7.23h0Z"/>
  </g>
  <g>
    <path d="m246.46,197.02v60.38c0-.36,3.96-3.07,4.43-3.48.76-.66,4.06-2.77,4.06-3.9v-60.38c0,.36-3.96,3.07-4.43,3.48-.76.66-4.06,2.77-4.06,3.9h0Z"/>
    <path d="m256.8,197.83c4.86-4.56,13.67-3.2,17.49,1.73s3.73,12.02,3.75,18.16c.04,13.23.06,26.45.1,39.68,0-.36,3.96-3.07,4.43-3.48.76-.66,4.06-2.77,4.06-3.9-.02-8.87-.05-17.74-.07-26.62-.02-8.12,1.11-17.33-.97-25.25-2.13-8.08-9.11-12.39-17.17-9.27-6.85,2.65-12.65,8.95-17.89,13.87-1.39,1.31-1.2,1.29.26.3,2.16-1.46,4.11-3.44,6-5.22h0Z"/>
    <path d="m284.16,201.75c5.35-3.67,15.57-10.08,21.8-5.16,4.73,3.74,4.8,11.39,5.23,16.84,1.15,14.61,1.08,29.38-.23,43.97.04-.49,3.89-3.01,4.43-3.48.86-.74,3.95-2.66,4.06-3.9,1.41-15.63,1.48-31.54-.04-47.17-.56-5.77-1.69-14.29-8.83-15.28-6.5-.9-14.21,4.13-19.26,7.6-2.1,1.44-4.02,3.24-5.87,4.97-.39.36-2.95,2.77-1.27,1.61h0Z"/>
  </g>
  <g>
    <path d="m336.33,151.34v106.33c0-.36,3.96-3.07,4.43-3.48.76-.66,4.06-2.77,4.06-3.9v-106.33c0,.36-3.96,3.07-4.43,3.48-.76.66-4.06,2.77-4.06,3.9h0Z"/>
    <path d="m340.74,202.96c6.57-5.09,15.25-9.08,23.49-5.56,7.06,3.01,11.96,8.15,14.82,15.24s3.26,15,2.12,22.66c-.47,3.13-1.1,6.31-2.13,9.31-.19.55-1.48,3.82-1.63,3.63,2.09-1.73,2.17-2,.24-.81-1.24.63-2.54,1.12-3.89,1.48-1.55.46-3.23,2.44-4.43,3.48-.99.86-2.87,3.55-4.06,3.9,7.38-2.17,14.74-8.19,19.62-14.05,5.39-6.48,6.05-18.91,5.18-26.81-1.21-11.05-6.56-20.15-16.65-25.04-9.69-4.69-19.38,1.2-26.94,7.06-2.05,1.59-4.27,3.28-6,5.22-1.07,1.2-1.48,1.65.26.3h0Z"/>
    <path d="m336.36,250.97c11.39,7.9,24.87,9.45,36.7,1.64,2.8-1.85,6.01-5.86,8.09-7.23-11.76,7.76-25.07,6-36.3-1.79-1.08-.75-8.08,7.66-8.49,7.38h0Z"/>
  </g>
  <g>
    <path d="m402.99,193.52c-.06,8.54-.15,17.08-.16,25.63-.01,7.78-.67,16.07.54,23.78,1.14,7.31,4.32,14.25,12.64,14.7s14.47-5.35,20.71-9.55c2.78-1.87,6.02-5.84,8.09-7.23-6.48,4.36-13.28,10.54-21.71,9.27-7.98-1.2-10.64-8.81-11.43-15.9-.85-7.64-.37-15.61-.35-23.29.02-8.26.11-16.52.16-24.79,0,.37-3.95,3.06-4.43,3.48-.77.67-4.05,2.76-4.06,3.9h0Z"/>
    <path d="m441.66,194.54v63.1c0-.36,3.96-3.07,4.43-3.48.76-.66,4.06-2.77,4.06-3.9v-63.1c0,.36-3.96,3.07-4.43,3.48-.76.66-4.06,2.77-4.06,3.9h0Z"/>
  </g>
  <g>
    <path d="m464.63,194.97v59.74c0-.36,3.96-3.07,4.43-3.48.76-.66,4.06-2.77,4.06-3.9v-59.74c0,.36-3.96,3.07-4.43,3.48-.76.66-4.06,2.77-4.06,3.9h0Z"/>
    <path d="m475.41,197.9c-1.54,1.6,1.72-.98,2.29-1.27,1.32-.66,2.81-1.29,4.29-1.43,2.09-.19,4.09.7,5.92,1.61,4.75,2.37,9.13,6.15,11.24,11.09-.29-.68,9.1-5.97,8.49-7.38-2.94-6.85-12.31-14.83-20.13-11.89-7.41,2.78-14.25,9.84-19.62,15.43-1.5,1.56,1.61-.9,1.78-1.03,1.98-1.6,3.97-3.28,5.74-5.12h0Z"/>
  </g>
  <g>
    <path d="m515.18,202.43c-7.29,7-11.82,20.64-4.94,29.51,2.73,3.51,7.7,5.46,12.07,4.35,4.13-1.04,7.59-4.96,10.61-7.72.31-.28,3.09-2.51,1.27-1.61-2.09,1.03-4.17,3.41-5.87,4.97l-.89.82,6.35-5.29c-6.26,4.2-14.22.27-16.9-6.2-2.98-7.19-1.11-18.28,4.58-23.74,1.37-1.32,1.2-1.29-.26-.3-2.15,1.45-4.14,3.43-6,5.22h0Z"/>
    <path d="m520.15,198.48c-1.53,1.34,3.76-.75,4.77-.85,1.7-.17,3.46-.07,5.11.39,3.54.98,6.27,3.6,8,6.77s2.38,7.26,1.82,10.96c-.31,2.03-1.03,4.03-1.93,5.87-.68,1.36-1.46,2.65-2.36,3.88-1.26,1.38-1.35,1.64-.28.76-2.1,1.43-4.02,3.25-5.87,4.97-.39.36-2.95,2.76-1.27,1.61,9.74-6.65,22.5-17.35,20.07-30.6-1.22-6.64-6.46-12.17-13.47-12.07-6.14.09-10.59,4.06-14.96,7.89-.46.4-3.72,3.95-4.06,3.9.91.14,3.93-3.04,4.43-3.48h0Z"/>
    <path d="m533.31,227.67c-7.36,3.7-14.33,8.95-19.46,15.45-2.27,2.87-5.37,7.8-3.89,11.64s7.74,3.94,11.1,4.24c9.44.86,20.74-.81,27.67,7.29,3.71,4.33,3.85,9.89,1.73,14.96s-5.89,12.14-9.74,14.71c-2.79,1.86-6.02,5.84-8.09,7.23,11.96-7.99,42.06-35.01,20.09-47.9-8.26-4.85-18.47-2.56-27.52-4.3-5.01-.96-7.92-2.8-6.56-8.29.22-.87,3.02-7.92,4.29-7.57-.19-.05-6.25,4.39-1.4,1.67,1.21-.68,2.46-1.29,3.7-1.91,2.95-1.48,5.98-6.17,8.09-7.23h0Z"/>
    <path d="m508.43,265.56c-7.82,8.6-17.19,23.6-7.54,34.5,8.37,9.45,24.84,8.63,34.3,1.71,2.06-1.51,4-3.23,5.87-4.97.38-.36,2.92-2.82,1.27-1.61-8.95,6.55-25.25,6.2-32.95-2.5-9.13-10.31-1-24.96,6.57-33.28,1.45-1.59-1.59.89-1.78,1.03-1.96,1.59-4.04,3.25-5.74,5.12h0Z"/>
    <path d="m549.59,193.67c-.08.1-7.14,4.94-4.27,3.96.92-.31,1.68-.65,2.62-.84,1.26-.25,2.55-.32,3.83-.18,2.6.28,4.89,1.38,6.77,3.18.55.52,8.55-7.33,8.49-7.38-8.73-8.31-19.95,1.21-25.73,8.27-.08.1,2.7-1.9,3.19-2.32,1.73-1.46,3.65-2.93,5.09-4.69h0Z"/>
  </g>
  <g>
    <path d="m569.16,205.27c-4.61,7.18-8.41,14.99-10.01,23.43-1.46,7.71-1.67,18.87,4.4,24.84,11.7,11.51,28.05-5.19,35.58-13.71-1.67,1.89-6.04,4.47-8.29,7-3.13,3.54-10.52,3.76-14.76,2-5.54-2.31-7.77-7.76-8.71-13.32-2.23-13.19,3.08-26.33,10.09-37.24-1.26,1.97-6.5,4.22-8.29,7h0Z"/>
    <path d="m578.19,197.55c1.36-1.77,1.09-1.67-.83.3.78-.44,1.61-.78,2.47-1.02,1.51-.52,2.99-.84,4.6-.92,3.16-.15,5.72.45,7.21,3.44,3.19,6.39,2.56,15.64,1.48,22.43.09-.59,3.83-2.95,4.43-3.48.93-.81,3.85-2.58,4.06-3.9,1.03-6.45,1.1-13.17-.55-19.54-1.48-5.71-5.29-7.19-10.86-5.98-7.79,1.69-15.88,9.28-20.3,15.66,1.36-1.96,6.39-4.26,8.29-7h0Z"/>
    <path d="m560.43,236.53c10.68-5.45,21.56-10.44,32.66-14.97,3-1.23,6-6.38,8.09-7.23-11.09,4.54-21.98,9.53-32.66,14.97-2.94,1.5-5.98,6.15-8.09,7.23h0Z"/>
  </g>
  <g>
    <path d="m656.07,156.68c-3.05-4.83-5.66-10.51-11.41-12.58-3.9-1.4-8.3-1.83-11.78.6-3.14,2.2-7.15,5.22-9.09,8.6-2.61,4.55-2.69,10.62-2.67,15.69.11,29.97.41,59.99,1.19,89.95,0-.33,3.97-3.08,4.43-3.48.74-.64,4.09-2.81,4.06-3.9-.65-24.67-.58-49.36-.93-74.04-.08-5.54-.29-11.1-.27-16.64.01-2.55.08-5.13.48-7.65.27-1.7,1.65-4.17,1.51-5.77.87-2.08-.28-1.1-3.45,2.95l1.15-.07c1,.32,2.35.13,3.41.3,1.96.32,3.95.82,5.68,1.83,4.36,2.54,6.6,7.48,9.19,11.58-.08-.13,9.02-6.55,8.49-7.38h0Z"/>
    <path d="m611.62,195.52c7.17,0,14.34,0,21.51,0l8.49-7.38c-8.1,0-16.2,0-24.29,0-1.21,0-3.56,2.72-4.43,3.48-.65.57-3.33,3.9-4.06,3.9h37.23c1.21,0,3.56-2.72,4.43-3.48.65-.57,3.33-3.9,4.06-3.9h-37.23l-8.49,7.38c8.1,0,16.2,0,24.29,0,1.21,0,3.56-2.72,4.43-3.48.65-.57,3.33-3.9,4.06-3.9-7.17,0-14.34,0-21.51,0-1.21,0-3.56,2.72-4.43,3.48-.65.57-3.33,3.9-4.06,3.9h0Z"/>
  </g>
  <g>
    <path d="m657.62,205.02c-8.53,11.31-11.85,26.49-7.76,40.25,3.62,12.17,18.43,16.21,28.2,8.87,2.05-1.54,4-3.23,5.87-4.97.38-.36,2.9-2.84,1.27-1.61-10.06,7.56-24.39.54-27.2-10.98-3.27-13.42-.4-27.56,7.9-38.56-1.47,1.94-6.26,4.32-8.29,7h0Z"/>
    <path d="m661.22,201.95c6.2-4.41,12.1-8.28,19.75-5.51,6.37,2.3,8.84,9.73,9.59,15.91,1.8,14.83-3.42,27.98-11.65,40.17,1.33-1.97,6.42-4.25,8.29-7,8.53-12.62,14.15-26.67,11.64-42.08-1.13-6.96-4.37-13.12-11.46-14.95s-13.35,2.85-19.01,6.87c-2.08,1.48-4.01,3.24-5.87,4.97-.39.36-2.93,2.8-1.27,1.61h0Z"/>
  </g>
  <g>
    <path d="m715.05,193.84v65.23c0-.36,3.96-3.07,4.43-3.48.76-.66,4.06-2.77,4.06-3.9v-65.23c0,.36-3.96,3.07-4.43,3.48-.76.66-4.06,2.77-4.06,3.9h0Z"/>
    <path d="m721.44,199.7c5.85-4.06,14.61-5.75,21.16-2.29,5.93,3.13,7.68,10.09,8.44,16.24,1.83,14.88.68,30.47.78,45.43,0-.35,3.96-3.07,4.43-3.48.76-.66,4.07-2.78,4.06-3.9-.06-8.69-.11-17.39-.16-26.08-.05-7.33.29-14.84-1.03-22.08s-4.37-13.14-11.71-14.85c-6.61-1.54-13.41.66-18.83,4.42-2.09,1.45-4.01,3.24-5.87,4.97-.39.36-2.95,2.78-1.27,1.61h0Z"/>
  </g>
  <g>
    <path d="m780.01,174.56c.23,10.56.19,21.11.11,31.67-.07,10.55-1.07,21.87.92,32.27,1.76,9.16,9.04,18.53,19.42,16.8,6.84-1.14,14.57-8.17,18.16-13.86-1.24,1.97-6.52,4.21-8.29,7-1.81,2.6-.65,1.83,3.48-2.32-1.1.67-2.28,1.17-3.54,1.5-1.74.47-3.58.6-5.37.37-3.94-.49-7.54-2.65-10.18-5.56-5.8-6.43-5.98-15.6-6.09-23.77-.23-17.17.22-34.33-.15-51.5,0,.33-3.97,3.08-4.43,3.48-.74.64-4.08,2.8-4.06,3.9h0Z"/>
    <path d="m768.38,197.77c11.92,0,23.84,0,35.76,0,1.21,0,3.56-2.72,4.43-3.48.65-.57,3.33-3.9,4.06-3.9-12.92,0-25.83,0-38.75,0-1.21,0-3.56,2.72-4.43,3.48-.65.57-3.33,3.9-4.06,3.9,12.92,0,25.83,0,38.75,0l8.49-7.38c-11.92,0-23.84,0-35.76,0-1.21,0-3.56,2.72-4.43,3.48-.65.57-3.33,3.9-4.06,3.9h0Z"/>
  </g>
  <g>
    <path d="m823.69,202.84c-2.71,4.4-5.53,9.65-2.03,14.46,3.31,4.55,9.8,6.24,14.81,8.04s10.13,3.86,13.43,8.14c1.35,1.75,2.25,3.81,2.53,6.01.16,1.23.15,2.57-.11,3.79-.28,1.31-2.83,4.59-.14,2.21-.43.38-3.11,2.75-2.74,2.84.85.21,4.82-3.92,5.35-4.39,3.36-2.97,6.33-5.7,6.23-10.54-.13-5.97-4.63-10.18-9.6-12.77-5.72-2.98-12.4-3.93-17.79-7.59-6.91-4.69-5.58-10.81-1.65-17.19-1.22,1.97-6.55,4.2-8.29,7h0Z"/>
    <path d="m822.67,246.49c3.02,7.08,10.67,10.95,18.06,8.09,5.51-2.13,11.12-7.53,14.7-12.13-1.5,1.94-6.22,4.35-8.29,7l3.03-2.7-2.36.92c-.87.25-1.79.41-2.69.49-2.06.16-4.12-.18-6.03-.96-3.73-1.52-6.37-4.43-7.93-8.09.29.68-9.1,5.96-8.49,7.38h0Z"/>
    <path d="m833.64,194.33l-2.99,2.7,2.25-.81c1.05-.25,2.11-.35,3.18-.3,1.85.08,3.64.64,5.24,1.58,3.49,2.06,5.66,5.5,6.95,9.26-.33-.95,9.07-5.69,8.49-7.38-2.39-6.98-8.85-12.88-16.61-10.16-5.6,1.96-11.18,7.59-14.79,12.12-.09.11,2.71-1.91,3.19-2.32,1.72-1.45,3.68-2.92,5.09-4.69h0Z"/>
  </g>
  <g>
    <path d="m872.68,165.82v17.97c0-.36,3.96-3.07,4.43-3.48.76-.66,4.06-2.77,4.06-3.9v-17.97c0,.36-3.96,3.07-4.43,3.48-.76.66-4.06,2.77-4.06,3.9h0Z"/>
    <path d="m872.93,193.71c0,20.57,0,41.14,0,61.72,0-.36,3.96-3.07,4.43-3.48.76-.66,4.06-2.77,4.06-3.9,0-20.57,0-41.14,0-61.72,0,.36-3.96,3.07-4.43,3.48-.76.66-4.06,2.77-4.06,3.9h0Z"/>
  </g>
  <g>
    <path d="m892.11,193.58c6.37,20.8,13.16,41.46,19.79,62.17-.33-1.03,9.06-5.61,8.49-7.38-6.63-20.71-13.42-41.37-19.79-62.17.33,1.08-9.05,5.57-8.49,7.38h0Z"/>
    <path d="m928.35,193.46c-5.54,20.5-10.94,41.05-16.06,61.66.18-.72,3.74-2.88,4.43-3.48,1.03-.89,3.71-2.49,4.06-3.9,5.12-20.61,10.52-41.16,16.06-61.66-.2.76-3.71,2.86-4.43,3.48-1.05.91-3.67,2.47-4.06,3.9h0Z"/>
  </g>
</svg>